<mxfile host="app.diagrams.net" agent="Mozilla/5.0 (Windows NT 10.0; Win64; x64) AppleWebKit/537.36 (KHTML, like Gecko) Chrome/128.0.0.0 Safari/537.36" version="24.7.8">
  <diagram name="Page-1" id="UlRusNcW_OG0aWLRSAX5">
    <mxGraphModel dx="2284" dy="772" grid="1" gridSize="10" guides="1" tooltips="1" connect="1" arrows="1" fold="1" page="1" pageScale="1" pageWidth="850" pageHeight="1100" math="0" shadow="0">
      <root>
        <mxCell id="0" />
        <mxCell id="1" parent="0" />
        <mxCell id="UQx2G6_8bDw5YVspfC1T-1" value="IBuilder" style="rounded=0;whiteSpace=wrap;html=1;" vertex="1" parent="1">
          <mxGeometry x="280" y="630" width="200" height="120" as="geometry" />
        </mxCell>
        <mxCell id="UQx2G6_8bDw5YVspfC1T-15" style="edgeStyle=orthogonalEdgeStyle;rounded=0;orthogonalLoop=1;jettySize=auto;html=1;exitX=0.5;exitY=0;exitDx=0;exitDy=0;entryX=0.5;entryY=1;entryDx=0;entryDy=0;" edge="1" parent="1" source="UQx2G6_8bDw5YVspfC1T-2" target="UQx2G6_8bDw5YVspfC1T-1">
          <mxGeometry relative="1" as="geometry" />
        </mxCell>
        <mxCell id="UQx2G6_8bDw5YVspfC1T-2" value="HatchbackBuilder" style="rounded=0;whiteSpace=wrap;html=1;" vertex="1" parent="1">
          <mxGeometry x="-110" y="950" width="200" height="120" as="geometry" />
        </mxCell>
        <mxCell id="UQx2G6_8bDw5YVspfC1T-20" style="edgeStyle=orthogonalEdgeStyle;rounded=0;orthogonalLoop=1;jettySize=auto;html=1;exitX=0.5;exitY=0;exitDx=0;exitDy=0;entryX=0.5;entryY=1;entryDx=0;entryDy=0;" edge="1" parent="1" source="UQx2G6_8bDw5YVspfC1T-3" target="UQx2G6_8bDw5YVspfC1T-1">
          <mxGeometry relative="1" as="geometry" />
        </mxCell>
        <mxCell id="UQx2G6_8bDw5YVspfC1T-3" value="SedanBuilder" style="rounded=0;whiteSpace=wrap;html=1;" vertex="1" parent="1">
          <mxGeometry x="990" y="950" width="200" height="120" as="geometry" />
        </mxCell>
        <mxCell id="UQx2G6_8bDw5YVspfC1T-14" style="edgeStyle=orthogonalEdgeStyle;rounded=0;orthogonalLoop=1;jettySize=auto;html=1;exitX=0.5;exitY=0;exitDx=0;exitDy=0;entryX=0.5;entryY=1;entryDx=0;entryDy=0;" edge="1" parent="1" source="UQx2G6_8bDw5YVspfC1T-4" target="UQx2G6_8bDw5YVspfC1T-1">
          <mxGeometry relative="1" as="geometry" />
        </mxCell>
        <mxCell id="UQx2G6_8bDw5YVspfC1T-4" value="SUVBuilder" style="rounded=0;whiteSpace=wrap;html=1;" vertex="1" parent="1">
          <mxGeometry x="-320" y="950" width="200" height="120" as="geometry" />
        </mxCell>
        <mxCell id="UQx2G6_8bDw5YVspfC1T-16" style="edgeStyle=orthogonalEdgeStyle;rounded=0;orthogonalLoop=1;jettySize=auto;html=1;exitX=0.5;exitY=0;exitDx=0;exitDy=0;entryX=0.5;entryY=1;entryDx=0;entryDy=0;" edge="1" parent="1" source="UQx2G6_8bDw5YVspfC1T-5" target="UQx2G6_8bDw5YVspfC1T-1">
          <mxGeometry relative="1" as="geometry" />
        </mxCell>
        <mxCell id="UQx2G6_8bDw5YVspfC1T-5" value="MUVBuilder" style="rounded=0;whiteSpace=wrap;html=1;" vertex="1" parent="1">
          <mxGeometry x="110" y="950" width="200" height="120" as="geometry" />
        </mxCell>
        <mxCell id="UQx2G6_8bDw5YVspfC1T-17" style="edgeStyle=orthogonalEdgeStyle;rounded=0;orthogonalLoop=1;jettySize=auto;html=1;exitX=0.5;exitY=0;exitDx=0;exitDy=0;" edge="1" parent="1" source="UQx2G6_8bDw5YVspfC1T-6">
          <mxGeometry relative="1" as="geometry">
            <mxPoint x="380" y="750" as="targetPoint" />
          </mxGeometry>
        </mxCell>
        <mxCell id="UQx2G6_8bDw5YVspfC1T-6" value="ConvertibleBuilder" style="rounded=0;whiteSpace=wrap;html=1;" vertex="1" parent="1">
          <mxGeometry x="330" y="950" width="200" height="120" as="geometry" />
        </mxCell>
        <mxCell id="UQx2G6_8bDw5YVspfC1T-18" style="edgeStyle=orthogonalEdgeStyle;rounded=0;orthogonalLoop=1;jettySize=auto;html=1;exitX=0.5;exitY=0;exitDx=0;exitDy=0;" edge="1" parent="1" source="UQx2G6_8bDw5YVspfC1T-7">
          <mxGeometry relative="1" as="geometry">
            <mxPoint x="380" y="750" as="targetPoint" />
          </mxGeometry>
        </mxCell>
        <mxCell id="UQx2G6_8bDw5YVspfC1T-7" value="CoupeBuilder" style="rounded=0;whiteSpace=wrap;html=1;" vertex="1" parent="1">
          <mxGeometry x="550" y="950" width="200" height="120" as="geometry" />
        </mxCell>
        <mxCell id="UQx2G6_8bDw5YVspfC1T-19" style="edgeStyle=orthogonalEdgeStyle;rounded=0;orthogonalLoop=1;jettySize=auto;html=1;exitX=0.5;exitY=0;exitDx=0;exitDy=0;" edge="1" parent="1" source="UQx2G6_8bDw5YVspfC1T-8">
          <mxGeometry relative="1" as="geometry">
            <mxPoint x="380" y="750" as="targetPoint" />
          </mxGeometry>
        </mxCell>
        <mxCell id="UQx2G6_8bDw5YVspfC1T-8" value="PickupBuilder" style="rounded=0;whiteSpace=wrap;html=1;" vertex="1" parent="1">
          <mxGeometry x="770" y="950" width="200" height="120" as="geometry" />
        </mxCell>
        <mxCell id="UQx2G6_8bDw5YVspfC1T-9" value="CarProduct" style="rounded=0;whiteSpace=wrap;html=1;" vertex="1" parent="1">
          <mxGeometry x="325" y="1170" width="200" height="120" as="geometry" />
        </mxCell>
        <mxCell id="UQx2G6_8bDw5YVspfC1T-12" value="Director" style="rounded=0;whiteSpace=wrap;html=1;" vertex="1" parent="1">
          <mxGeometry x="280" y="350" width="200" height="120" as="geometry" />
        </mxCell>
        <mxCell id="UQx2G6_8bDw5YVspfC1T-13" value="Program" style="rounded=0;whiteSpace=wrap;html=1;" vertex="1" parent="1">
          <mxGeometry x="280" y="130" width="200" height="120" as="geometry" />
        </mxCell>
        <mxCell id="UQx2G6_8bDw5YVspfC1T-21" value="" style="triangle;whiteSpace=wrap;html=1;rotation=-90;" vertex="1" parent="1">
          <mxGeometry x="360" y="750" width="40" height="40" as="geometry" />
        </mxCell>
      </root>
    </mxGraphModel>
  </diagram>
</mxfile>
